# xmcd
#
# Track frame offsets:
#	150
#	18515
#	34188
#	48706
#	65494
#	82039
#	95952
#	113260
#	127342
#	146232
#	161227
#	175935
#	190588
#	205085
#
# Disc length: 2934
#
# Revision: 4
# Processed by: cddbd v1.5.1PL0 Copyright (c) Steve Scherf et al.
# Submitted via: audiograbber 1.80.04
# Normalized: r3:DSETVAR1
#
DISCID=d00b740e
DTITLE=Various Artist - Hot Hits Country Vol. 66
DYEAR=1997
DGENRE=Country
TTITLE0=Alan Jackson - Who's Cheatin Who
TTITLE1=Deanna Carter - Count Me In
TTITLE2=Joe Diffie - This Is Your Brain
TTITLE3=Ty Herndon - Loved Too Much
TTITLE4=Rick Trevino - I Only Get This Way With You
TTITLE5=John Berry - I Will If You Will
TTITLE6=Lee Roy Parnell - Lucky Me Lucky You
TTITLE7=James Bonamy - The Swing
TTITLE8=Jeff Wood - Use Mine
TTITLE9=John and Audrey Wiggins - Somewhere In Love
TTITLE10=Gary Allan - From Where I'm Sitting
TTITLE11=Sammy Kershaw - Fit To Be Tied Down
TTITLE12=Aaron Tippin - A Door
TTITLE13=Pam Tillis - All The Good Ones Are Gone
EXTD=
EXTT0=Jackson - Alan
EXTT1=Carter - Deana
EXTT2=Diffie - Joe
EXTT3=Herndon - Ty
EXTT4=Trevino - Rick
EXTT5=Berry - John
EXTT6=Parnell - Lee Roy
EXTT7=Bonamy - James
EXTT8=Wood - James
EXTT9=Wiggins - John and Audrey
EXTT10=Allan - Gary
EXTT11=Kershaw - Sammy
EXTT12=Tippin - Aaron
EXTT13=Tillis - Pam
PLAYORDER=
